<svg id="visual" viewBox="0 0 3000 300" width="3000" height="300" xmlns="http://www.w3.org/2000/svg" xmlns:xlink="http://www.w3.org/1999/xlink" version="1.1"><rect x="0" y="0" width="3000" height="300" fill="#f5f5fa"></rect><path d="M0 233L23.8 208C47.7 183 95.3 133 143 116.3C190.7 99.7 238.3 116.3 286 136.7C333.7 157 381.3 181 428.8 191.7C476.3 202.3 523.7 199.7 571.2 185.8C618.7 172 666.3 147 714 147.3C761.7 147.7 809.3 173.3 857 165C904.7 156.7 952.3 114.3 1000 120.8C1047.7 127.3 1095.3 182.7 1143 194.3C1190.7 206 1238.3 174 1286 173.7C1333.7 173.3 1381.3 204.7 1428.8 204.5C1476.3 204.3 1523.7 172.7 1571.2 164C1618.7 155.3 1666.3 169.7 1714 159.5C1761.7 149.3 1809.3 114.7 1857 96.3C1904.7 78 1952.3 76 2000 83.3C2047.7 90.7 2095.3 107.3 2143 108.5C2190.7 109.7 2238.3 95.3 2286 80.5C2333.7 65.7 2381.3 50.3 2428.8 62.3C2476.3 74.3 2523.7 113.7 2571.2 129.5C2618.7 145.3 2666.3 137.7 2714 139.8C2761.7 142 2809.3 154 2857 149.2C2904.7 144.3 2952.3 122.7 2976.2 111.8L3000 101L3000 301L2976.2 301C2952.3 301 2904.7 301 2857 301C2809.3 301 2761.7 301 2714 301C2666.3 301 2618.7 301 2571.2 301C2523.7 301 2476.3 301 2428.8 301C2381.3 301 2333.7 301 2286 301C2238.3 301 2190.7 301 2143 301C2095.3 301 2047.7 301 2000 301C1952.3 301 1904.7 301 1857 301C1809.3 301 1761.7 301 1714 301C1666.3 301 1618.7 301 1571.2 301C1523.7 301 1476.3 301 1428.8 301C1381.3 301 1333.7 301 1286 301C1238.3 301 1190.7 301 1143 301C1095.3 301 1047.7 301 1000 301C952.3 301 904.7 301 857 301C809.3 301 761.7 301 714 301C666.3 301 618.7 301 571.2 301C523.7 301 476.3 301 428.8 301C381.3 301 333.7 301 286 301C238.3 301 190.7 301 143 301C95.3 301 47.7 301 23.8 301L0 301Z" fill="#ffffff" stroke-linecap="round" stroke-linejoin="miter"></path></svg>